# xmcd
#
# Track frame offsets: 
#        150
#        16490
#        32125
#        40015
#        54940
#        78305
#        92750
#        110750
#        125025
#        145447
#        158902
#        175395
#        194312
#
# Disc length: 2826 seconds
#
# Revision: 0
# Processed by: cddbd v1.4PL0 Copyright (c) Steve Scherf et al.
# Submitted via: ExactAudioCopy v0.90b3
#
DISCID=b00b080d
DTITLE=Isaac Guillory - Live
DYEAR=1988
DGENRE=
TTITLE0=Through Us All (I. Guillory)
TTITLE1=Talking to You (I. Guillory)
TTITLE2=Spanish Reign (I. Guillory)
TTITLE3=Baltimore Oriole (Hoagy Carmichael)
TTITLE4=The Weight (Jamie Robertson)
TTITLE5=Morning Glory (Tim Buckley)
TTITLE6=Blues Is Just a Bad Dream (James Taylor)
TTITLE7=Swinging Little Guitar Man (I. Guillory)
TTITLE8=High Flying Bird (Billy Ed Wheeler)
TTITLE9=Marryin' Blue Yodel (Trad arr I. Guillory)
TTITLE10=Somewhere Tonight (I. Guillory)
TTITLE11=People Get Ready (Curtis Mayfield)
TTITLE12=God Bless the Child (Billie Holliday)
EXTD=
EXTT0=
EXTT1=
EXTT2=
EXTT3=
EXTT4=
EXTT5=
EXTT6=
EXTT7=
EXTT8=
EXTT9=
EXTT10=
EXTT11=
EXTT12=
PLAYORDER=
